<svg xmlns="http://www.w3.org/2000/svg" viewBox="0 0 24 24" width="24" height="24">
  <!-- GemStone inverted-gem-triangle motif (matches gemstone-sidebar icon) -->
  <g>
    <polygon points="7.5,3 9.4,4.9 7.5,6.8 5.6,4.9" fill="#34A853"/>
    <polygon points="12,3 13.9,4.9 12,6.8 10.1,4.9" fill="#FBBC05"/>
    <polygon points="16.5,3 18.4,4.9 16.5,6.8 14.6,4.9" fill="#4285F4"/>
    <polygon points="9.75,7 11.65,8.9 9.75,10.8 7.85,8.9" fill="#4285F4"/>
    <polygon points="14.25,7 16.15,8.9 14.25,10.8 12.35,8.9" fill="#A142F4"/>
    <polygon points="12,11 13.9,12.9 12,14.8 10.1,12.9" fill="#34A853"/>
  </g>
  <!-- Open book, signalling "browse" -->
  <g fill="none" stroke="currentColor" stroke-width="1.3" stroke-linejoin="round" stroke-linecap="round">
    <path d="M12 17.5 C10.4 16.4 8.2 16.2 6 16.6 L6 21.2 C8.2 20.8 10.4 21 12 22.1 C13.6 21 15.8 20.8 18 21.2 L18 16.6 C15.8 16.2 13.6 16.4 12 17.5 Z"/>
    <path d="M12 17.5 L12 22.1"/>
  </g>
</svg>
